<svg xmlns:xlink="http://www.w3.org/1999/xlink" preserveAspectRatio="xMidYMid meet" data-bbox="32 27.5 136 145" viewBox="32 27.5 136 145" height="200" width="200" xmlns="http://www.w3.org/2000/svg" data-type="shape" role="presentation" aria-hidden="true" aria-label="">
    <g stroke="#5E97FF" stroke-width="0px">
        <path d="m166.839 98.552-60.552 61.087c-8.222 8.294-19.153 12.861-30.781 12.861-11.627 0-22.558-4.567-30.78-12.861-16.968-17.118-16.968-44.97 0-62.086l60.552-61.087c5.731-5.782 13.351-8.966 21.457-8.966 8.107 0 15.727 3.184 21.458 8.966 11.827 11.931 11.827 31.344-.001 43.274l-60.619 61.089c-3.238 3.268-7.548 5.067-12.131 5.067-4.584 0-8.894-1.8-12.134-5.069-6.685-6.744-6.685-17.719 0-24.464l55.942-56.369a3.953 3.953 0 0 1 5.617-.001 4.021 4.021 0 0 1 .001 5.657l-55.94 56.367c-3.594 3.626-3.595 9.529.001 13.157a9.112 9.112 0 0 0 6.514 2.722 9.11 9.11 0 0 0 6.512-2.722l60.62-61.089c8.736-8.812 8.736-23.153-.001-31.968-4.231-4.268-9.855-6.618-15.837-6.618-5.981 0-11.605 2.351-15.835 6.618L50.35 103.204c-13.879 14-13.879 36.78 0 50.781 6.72 6.779 15.656 10.514 25.159 10.514 9.504 0 18.439-3.734 25.16-10.514l60.552-61.087a3.954 3.954 0 0 1 5.617-.005 4.026 4.026 0 0 1 .001 5.659z" stroke="#5E97FF" stroke-width="0px"></path>
    </g>
</svg>